<svg width="16" height="18" viewBox="0 0 16 18" fill="none" xmlns="http://www.w3.org/2000/svg">
<g clip-path="url(#clip0_213_169)">
<path d="M5.71429 3.9375C5.71429 2.69648 6.73929 1.6875 8 1.6875C9.26071 1.6875 10.2857 2.69648 10.2857 3.9375V5.625H5.71429V3.9375ZM4 5.625H1.71429C0.767857 5.625 0 6.38086 0 7.3125V14.625C0 16.4883 1.53571 18 3.42857 18H12.5714C14.4643 18 16 16.4883 16 14.625V7.3125C16 6.38086 15.2321 5.625 14.2857 5.625H12V3.9375C12 1.76133 10.2107 0 8 0C5.78929 0 4 1.76133 4 3.9375V5.625ZM4.85714 7.3125C5.08447 7.3125 5.30249 7.40139 5.46323 7.55963C5.62398 7.71786 5.71429 7.93247 5.71429 8.15625C5.71429 8.38003 5.62398 8.59464 5.46323 8.75287C5.30249 8.91111 5.08447 9 4.85714 9C4.62981 9 4.4118 8.91111 4.25105 8.75287C4.09031 8.59464 4 8.38003 4 8.15625C4 7.93247 4.09031 7.71786 4.25105 7.55963C4.4118 7.40139 4.62981 7.3125 4.85714 7.3125ZM10.2857 8.15625C10.2857 7.93247 10.376 7.71786 10.5368 7.55963C10.6975 7.40139 10.9155 7.3125 11.1429 7.3125C11.3702 7.3125 11.5882 7.40139 11.7489 7.55963C11.9097 7.71786 12 7.93247 12 8.15625C12 8.38003 11.9097 8.59464 11.7489 8.75287C11.5882 8.91111 11.3702 9 11.1429 9C10.9155 9 10.6975 8.91111 10.5368 8.75287C10.376 8.59464 10.2857 8.38003 10.2857 8.15625Z" fill="white"/>
</g>
<defs>
<clipPath id="clip0_213_169">
<rect width="16" height="18" fill="white"/>
</clipPath>
</defs>
</svg>
