<svg width="18" height="18" viewBox="0 0 18 18" fill="none" xmlns="http://www.w3.org/2000/svg">
<g clip-path="url(#clip0_209_258)">
<path d="M1.61381 4.21941C2.2322 5.6577 3.27616 7.08032 4.73702 7.69352C4.90377 7.763 5.09311 7.81511 5.28766 7.85854C5.67676 7.27836 6.12318 6.80761 6.64603 6.422C7.09591 6.09196 7.56666 5.83314 8.05128 5.62989C7.91232 5.53261 7.76642 5.44403 7.61355 5.36412C7.00558 5.04624 6.34726 4.76658 5.70627 4.46607C6.30903 4.62935 7.00037 4.69015 7.57707 4.90033C7.93664 5.03236 8.26841 5.21475 8.57761 5.43188C9.5 5.11746 10.4641 4.96634 11.4264 4.85171C10.6464 3.55587 8.98234 2.51538 7.72819 2.04464C6.41846 1.55304 4.93502 1.49225 3.47764 1.34114C2.5848 1.24906 1.61379 0.915563 0.903338 0.526465C0.741793 0.437876 0.569826 0.585525 0.625411 0.76444C0.974575 1.88134 1.15175 3.14591 1.61381 4.21941Z" fill="white"/>
<path d="M17.0127 4.04918C15.3694 4.94202 13.4847 5.05146 11.6382 5.26338C10.7367 5.3676 9.84388 5.49612 8.99445 5.75323C8.81032 5.80879 8.62621 5.87134 8.44554 5.94083C7.90879 6.1458 7.39115 6.41504 6.90304 6.77461C6.44446 7.11158 6.06926 7.51112 5.75312 7.95059C5.24937 8.65234 4.89849 9.46006 4.61014 10.2991C4.08382 11.8224 3.84237 13.4414 3.88927 15.0516C3.90838 15.7048 3.9188 16.3839 4.08034 17.0214C4.11682 17.1621 4.15156 17.341 4.261 17.4453C4.40343 17.5825 4.65878 17.4418 4.60146 17.242C4.18804 15.8333 4.44512 14.1866 5.01661 12.8404C5.67321 11.2926 6.94126 10.372 8.4907 9.81096C8.90238 9.66158 9.32277 9.5313 9.75006 9.40797C9.75875 9.40451 9.76743 9.40451 9.77612 9.40451C9.86123 9.40451 9.89771 9.52956 9.80912 9.56953C9.30538 9.79709 8.80511 10.0264 8.32914 10.2748C5.99802 11.4907 4.98012 14.3221 5.85385 14.3221C5.92509 14.3221 6.00845 14.303 6.10398 14.263C7.45193 13.7054 9.05349 13.7002 10.5352 13.4258C11.0563 13.3303 11.5635 13.2 12.0395 13.002C13.9294 12.2133 15.2808 10.6708 16.0851 8.81567C16.6843 7.43125 16.9171 5.79669 17.3705 4.35839C17.4295 4.17427 17.2992 4.01621 17.1394 4.01621C17.0995 4.01444 17.0561 4.02488 17.0127 4.04918Z" fill="white"/>
</g>
<defs>
<clipPath id="clip0_209_258">
<rect width="17" height="17" fill="white" transform="translate(0.5 0.5)"/>
</clipPath>
</defs>
</svg>
