<svg width="200" height="100" viewBox="0 0 200 100" fill="none" xmlns="http://www.w3.org/2000/svg">
<path d="M194.424 100C197.503 100 200.016 97.5009 199.845 94.4261C198.478 69.9361 188.146 46.7249 170.711 29.2893C151.957 10.5357 126.522 2.00233e-06 100 0C73.4784 -2.00233e-06 48.043 10.5357 29.2893 29.2893C11.8537 46.7249 1.52153 69.9361 0.155319 94.4261C-0.0162153 97.5009 2.49654 100 5.57618 100C8.65581 100 11.1341 97.5003 11.3272 94.4268C12.6795 72.8968 21.8315 52.5189 37.1752 37.1752C53.8374 20.5131 76.4361 11.1523 100 11.1524C123.564 11.1524 146.163 20.5131 162.825 37.1752C178.168 52.5189 187.321 72.8968 188.673 94.4268C188.866 97.5003 191.344 100 194.424 100Z" fill="var(--first-theme-color)"/>
</svg>
